<?xml version="1.0" encoding="UTF-8" standalone="no"?>
<!-- Created with Inkscape (http://www.inkscape.org/) -->

<svg
   width="14.728793mm"
   height="22.925854mm"
   viewBox="0 0 14.728793 22.925854"
   version="1.1"
   id="svg735"
   inkscape:version="1.2.1 (9c6d41e, 2022-07-14)"
   sodipodi:docname="clover.svg"
   xmlns:inkscape="http://www.inkscape.org/namespaces/inkscape"
   xmlns:sodipodi="http://sodipodi.sourceforge.net/DTD/sodipodi-0.dtd"
   xmlns="http://www.w3.org/2000/svg"
   xmlns:svg="http://www.w3.org/2000/svg">
  <sodipodi:namedview
     id="namedview737"
     pagecolor="#ffffff"
     bordercolor="#000000"
     borderopacity="0.25"
     inkscape:showpageshadow="2"
     inkscape:pageopacity="0.0"
     inkscape:pagecheckerboard="0"
     inkscape:deskcolor="#d1d1d1"
     inkscape:document-units="mm"
     showgrid="false"
     inkscape:zoom="3.9962644"
     inkscape:cx="19.518228"
     inkscape:cy="13.387503"
     inkscape:window-width="1920"
     inkscape:window-height="943"
     inkscape:window-x="1080"
     inkscape:window-y="445"
     inkscape:window-maximized="1"
     inkscape:current-layer="layer1" />
  <defs
     id="defs732" />
  <g
     inkscape:label="Layer 1"
     inkscape:groupmode="layer"
     id="layer1"
     transform="translate(-66.042962,-137.03656)">
    <path
       style="fill:#39993a;stroke-width:0;fill-opacity:1;stroke:none;opacity:0.99736842;stroke-dasharray:none"
       d="m 77.903594,145.37929 c -2.283884,-0.44159 -4.029869,-0.8636 -4.415102,-0.95833 -0.0011,-0.009 -0.0016,-0.0185 -0.0026,-0.0275 -2.65e-4,-0.003 -0.0021,-0.006 -0.0029,-0.009 0.401902,-0.0839 2.376488,-0.46091 4.516438,-0.26485 3.862916,0.35481 3.4163,-4.85325 0.339725,-3.94758 1.118658,-2.93582 -3.209925,-4.11216 -3.953669,-0.26723 -0.445294,2.30108 -0.869685,4.05447 -0.959908,4.42171 -0.0077,-0.002 -0.01561,-0.004 -0.02408,-0.003 -0.0037,2.7e-4 -0.0066,0.002 -0.01005,0.003 -0.08334,-0.39872 -0.461962,-2.37516 -0.265906,-4.51776 0.355336,-3.86238 -4.852987,-3.41656 -3.947583,-0.33946 -2.935287,-1.11919 -4.112154,3.2094 -0.266965,3.95314 2.2987,0.44503 4.0513,0.86889 4.421188,0.95965 -0.0021,0.008 -0.004,0.0169 -0.0032,0.0259 2.64e-4,0.003 2.64e-4,0.006 5.29e-4,0.009 -0.406929,0.0849 -2.37834,0.46037 -4.514585,0.26484 -3.862388,-0.3548 -3.416036,4.85326 -0.339196,3.94812 -1.119188,2.93502 3.209396,4.11136 3.953404,0.2667 0.392112,-2.02618 0.767556,-3.62585 0.913606,-4.23096 0.06085,1.19275 -0.06138,2.38734 -0.306916,3.55283 -0.261409,1.25174 -0.65458,2.47332 -1.069182,3.69041 -0.429154,1.20861 -0.826293,2.47703 -0.992452,3.78566 -0.177271,1.3073 -0.14605,2.65403 0.108215,3.95896 l 5.29e-4,0.003 c 7.94e-4,0.004 0.0019,0.008 0.0026,0.0124 0.04789,0.20452 0.252412,0.33125 0.456935,0.28336 0.204523,-0.0479 0.331259,-0.25241 0.283369,-0.45693 -0.285221,-1.21655 -0.363802,-2.47862 -0.242888,-3.73115 0.05927,-0.62627 0.1651,-1.25043 0.310357,-1.86796 0.141816,-0.6186 0.330729,-1.22476 0.515937,-1.84679 0.367506,-1.23773 0.717021,-2.49079 0.932127,-3.77349 0.174096,-1.02579 0.254265,-2.07143 0.204259,-3.11044 0.129381,0.8464 0.283104,2.2942 0.14261,3.82719 -0.354806,3.86239 4.853252,3.4163 3.947848,0.33946 2.936081,1.11893 4.112683,-3.20966 0.267494,-3.95366 z"
       id="path146" />
  </g>
</svg>
