<svg width="150" height="21" viewBox="0 0 150 21" fill="none" xmlns="http://www.w3.org/2000/svg">
<path d="M28.375 15.2266H33.7031V17H26.1719V5.625H28.375V15.2266ZM41.2266 17L41.1016 15.8125C40.8151 16.2344 40.4688 16.5651 40.0625 16.8047C39.6615 17.0443 39.2214 17.1641 38.7422 17.1641C38.3047 17.1641 37.9036 17.0964 37.5391 16.9609C37.1745 16.8255 36.862 16.6094 36.6016 16.3125C36.3411 16.0208 36.138 15.6484 35.9922 15.1953C35.8516 14.737 35.7812 14.1875 35.7812 13.5469V8.54688H37.9531V13.5625C37.9531 13.9062 37.9766 14.1953 38.0234 14.4297C38.0755 14.6641 38.1562 14.8516 38.2656 14.9922C38.375 15.138 38.5182 15.2422 38.6953 15.3047C38.8724 15.3672 39.0885 15.3984 39.3438 15.3984C39.5729 15.3984 39.7786 15.375 39.9609 15.3281C40.1484 15.2812 40.3125 15.2135 40.4531 15.125C40.5729 15.0469 40.6797 14.9531 40.7734 14.8438C40.8672 14.7344 40.9479 14.612 41.0156 14.4766V8.54688H43.1953V17H41.2266ZM49.0625 15.4219C49.276 15.4219 49.4792 15.3906 49.6719 15.3281C49.8646 15.2656 50.0339 15.1771 50.1797 15.0625C50.3255 14.9479 50.4375 14.8099 50.5156 14.6484C50.599 14.487 50.6354 14.3073 50.625 14.1094H52.6719C52.6823 14.5469 52.5911 14.9531 52.3984 15.3281C52.2109 15.7031 51.9531 16.026 51.625 16.2969C51.2969 16.5677 50.9141 16.7812 50.4766 16.9375C50.0443 17.0885 49.5859 17.1641 49.1016 17.1641C48.4453 17.1641 47.8698 17.0547 47.375 16.8359C46.8802 16.612 46.4688 16.3073 46.1406 15.9219C45.8073 15.5365 45.5547 15.0859 45.3828 14.5703C45.2161 14.0495 45.1328 13.4922 45.1328 12.8984V12.6641C45.1328 12.0703 45.2161 11.5156 45.3828 11C45.5495 10.4792 45.7995 10.026 46.1328 9.64062C46.4661 9.25521 46.8776 8.95052 47.3672 8.72656C47.862 8.5026 48.4349 8.39062 49.0859 8.39062C49.6068 8.39062 50.0885 8.46875 50.5312 8.625C50.974 8.78125 51.3568 9 51.6797 9.28125C51.9974 9.56771 52.2448 9.91406 52.4219 10.3203C52.599 10.7214 52.6823 11.1719 52.6719 11.6719H50.625C50.6354 11.4635 50.6042 11.2656 50.5312 11.0781C50.4583 10.8906 50.3516 10.7292 50.2109 10.5938C50.0703 10.4583 49.901 10.3516 49.7031 10.2734C49.5052 10.1901 49.2891 10.1484 49.0547 10.1484C48.7109 10.1484 48.4271 10.2188 48.2031 10.3594C47.9792 10.5 47.8021 10.6875 47.6719 10.9219C47.5365 11.1562 47.4401 11.4245 47.3828 11.7266C47.3307 12.0286 47.3047 12.3411 47.3047 12.6641V12.8984C47.3047 13.2266 47.3307 13.5443 47.3828 13.8516C47.4349 14.1536 47.5286 14.4193 47.6641 14.6484C47.7943 14.8828 47.9714 15.0703 48.1953 15.2109C48.4245 15.3516 48.7135 15.4219 49.0625 15.4219ZM58.1094 13.5078L57.125 14.4219V17H54.9531V5H57.125V11.8594L57.7812 11.1094L60.1172 8.54688H62.7266L59.5391 12.0703L63.1719 17H60.5078L58.1094 13.5078ZM65.875 20.4141C65.6667 20.4141 65.4844 20.401 65.3281 20.375C65.1771 20.349 65.0078 20.3099 64.8203 20.2578L65.0859 18.6016C65.1745 18.6016 65.2865 18.6042 65.4219 18.6094C65.5625 18.6198 65.6745 18.625 65.7578 18.625C65.9297 18.625 66.0807 18.5703 66.2109 18.4609C66.3464 18.3568 66.4609 18.2422 66.5547 18.1172C66.6484 17.9922 66.7161 17.8984 66.7578 17.8359C66.8047 17.7734 66.8594 17.6849 66.9219 17.5703L67.4219 16.6406L63.8438 8.54688H66.2188L68.1562 13.5L68.3906 14.3594L68.7109 13.5156L70.6406 8.54688H73.0391L68.75 18.2656C68.6562 18.4792 68.5339 18.7109 68.3828 18.9609C68.237 19.2109 68.0521 19.4427 67.8281 19.6562C67.6042 19.8698 67.3307 20.0495 67.0078 20.1953C66.6901 20.3411 66.3125 20.4141 65.875 20.4141ZM78.1328 6.47656V8.54688H81.2891V10.1484H78.1328V13.7812C78.1328 14.0885 78.1667 14.3464 78.2344 14.5547C78.3073 14.7578 78.4089 14.9193 78.5391 15.0391C78.6693 15.1641 78.8255 15.2526 79.0078 15.3047C79.1953 15.3568 79.4036 15.3828 79.6328 15.3828C79.7995 15.3828 79.9688 15.375 80.1406 15.3594C80.3177 15.3438 80.487 15.3229 80.6484 15.2969C80.8047 15.276 80.9505 15.2526 81.0859 15.2266C81.2266 15.2005 81.3464 15.1745 81.4453 15.1484L81.6562 16.6406C81.5052 16.7292 81.3281 16.8073 81.125 16.875C80.9219 16.9375 80.7057 16.9896 80.4766 17.0312C80.2474 17.0729 80.0078 17.1042 79.7578 17.125C79.513 17.151 79.2708 17.1641 79.0312 17.1641C78.5677 17.1641 78.1458 17.1042 77.7656 16.9844C77.3906 16.8594 77.0703 16.6667 76.8047 16.4062C76.5339 16.151 76.3255 15.8255 76.1797 15.4297C76.0339 15.0286 75.9609 14.5495 75.9609 13.9922V10.1484H74.0312V8.54688H75.9609V6.47656H78.1328ZM84.3359 8.54688H88.9375V15.2344H91.2266V17H84.3359V15.2344H86.7422V10.3203H84.3359V8.54688ZM86.5859 6.38281C86.5859 6.21615 86.6146 6.0625 86.6719 5.92188C86.7344 5.77604 86.8203 5.65104 86.9297 5.54688C87.0391 5.44792 87.1693 5.36979 87.3203 5.3125C87.4766 5.25521 87.6484 5.22656 87.8359 5.22656C88.2214 5.22656 88.526 5.33594 88.75 5.55469C88.9792 5.76823 89.0938 6.04427 89.0938 6.38281C89.0938 6.72135 88.9792 7 88.75 7.21875C88.526 7.43229 88.2214 7.53906 87.8359 7.53906C87.6484 7.53906 87.4766 7.51042 87.3203 7.45312C87.1693 7.39583 87.0391 7.3151 86.9297 7.21094C86.8203 7.11198 86.7344 6.99219 86.6719 6.85156C86.6146 6.70573 86.5859 6.54948 86.5859 6.38281ZM94.7188 8.54688L94.7812 9.57031C94.9427 9.20573 95.1641 8.91927 95.4453 8.71094C95.7318 8.4974 96.0781 8.39062 96.4844 8.39062C96.6823 8.39062 96.8594 8.41406 97.0156 8.46094C97.1719 8.50781 97.3073 8.58073 97.4219 8.67969C97.5104 8.7526 97.5859 8.84115 97.6484 8.94531C97.7161 9.04427 97.7734 9.15885 97.8203 9.28906C97.8932 9.16406 97.974 9.05208 98.0625 8.95312C98.1562 8.84896 98.2578 8.76042 98.3672 8.6875C98.5026 8.59375 98.6562 8.52083 98.8281 8.46875C99 8.41667 99.1875 8.39062 99.3906 8.39062C99.6458 8.39062 99.8828 8.4375 100.102 8.53125C100.326 8.625 100.521 8.77344 100.688 8.97656C100.849 9.1849 100.974 9.45312 101.062 9.78125C101.156 10.1042 101.203 10.5 101.203 10.9688V17H99.2266V10.9609C99.2266 10.7995 99.2083 10.6667 99.1719 10.5625C99.1406 10.4583 99.0964 10.375 99.0391 10.3125C98.9818 10.2552 98.9141 10.2161 98.8359 10.1953C98.763 10.1693 98.6875 10.1562 98.6094 10.1562C98.526 10.1562 98.4505 10.1667 98.3828 10.1875C98.3203 10.2083 98.2604 10.237 98.2031 10.2734C98.1562 10.3099 98.1146 10.3516 98.0781 10.3984C98.0417 10.4401 98.0104 10.4896 97.9844 10.5469C97.9844 10.5573 97.9844 10.5807 97.9844 10.6172C97.9844 10.6536 97.9844 10.7031 97.9844 10.7656V17H96.0703V10.9531C96.0703 10.7917 96.0547 10.6589 96.0234 10.5547C95.9922 10.4505 95.9505 10.3698 95.8984 10.3125C95.8411 10.2552 95.776 10.2161 95.7031 10.1953C95.6302 10.1693 95.5521 10.1562 95.4688 10.1562C95.375 10.1562 95.2917 10.1719 95.2188 10.2031C95.1458 10.2344 95.0807 10.2786 95.0234 10.3359C94.9818 10.3776 94.9453 10.4271 94.9141 10.4844C94.8828 10.5417 94.8542 10.6042 94.8281 10.6719V17H92.8516V8.54688H94.7188ZM107.078 17.1562C106.427 17.1562 105.836 17.0495 105.305 16.8359C104.773 16.6224 104.318 16.3307 103.938 15.9609C103.557 15.5964 103.263 15.1667 103.055 14.6719C102.852 14.1719 102.75 13.638 102.75 13.0703V12.7578C102.75 12.112 102.852 11.5234 103.055 10.9922C103.258 10.4557 103.542 9.99479 103.906 9.60938C104.271 9.22396 104.703 8.92448 105.203 8.71094C105.703 8.4974 106.247 8.39062 106.836 8.39062C107.445 8.39062 107.987 8.49219 108.461 8.69531C108.94 8.89323 109.346 9.17448 109.68 9.53906C110.008 9.90365 110.258 10.3438 110.43 10.8594C110.602 11.3698 110.688 11.9349 110.688 12.5547V13.4766H104.953V13.5C105.026 13.8385 105.12 14.112 105.234 14.3203C105.349 14.5234 105.503 14.7083 105.695 14.875C105.893 15.0469 106.12 15.1797 106.375 15.2734C106.63 15.3672 106.909 15.4141 107.211 15.4141C107.638 15.4141 108.052 15.3333 108.453 15.1719C108.854 15.0104 109.18 14.7682 109.43 14.4453L110.516 15.6172C110.24 16.0078 109.802 16.362 109.203 16.6797C108.604 16.9974 107.896 17.1562 107.078 17.1562ZM106.82 10.1484C106.576 10.1484 106.352 10.1927 106.148 10.2812C105.945 10.3646 105.768 10.487 105.617 10.6484C105.461 10.8099 105.331 11.0026 105.227 11.2266C105.122 11.4505 105.044 11.7005 104.992 11.9766H108.555V11.8047C108.555 11.5755 108.513 11.3594 108.43 11.1562C108.346 10.9531 108.232 10.776 108.086 10.625C107.94 10.4792 107.76 10.3646 107.547 10.2812C107.339 10.1927 107.096 10.1484 106.82 10.1484ZM117.906 17H115.711V8.27344L112.836 9.30469V7.41406L117.789 5.625H117.906V17ZM123.688 15.2734C124.271 15.2734 124.776 15.2109 125.203 15.0859C125.63 14.9609 125.99 14.7786 126.281 14.5391C126.562 14.3099 126.781 14.0286 126.938 13.6953C127.099 13.3568 127.206 12.9792 127.258 12.5625V12.5156C127.148 12.625 127.026 12.7266 126.891 12.8203C126.755 12.9141 126.607 12.9948 126.445 13.0625C126.273 13.1406 126.081 13.2031 125.867 13.25C125.654 13.2917 125.419 13.3125 125.164 13.3125C124.622 13.3125 124.146 13.2135 123.734 13.0156C123.323 12.8177 122.979 12.5469 122.703 12.2031C122.422 11.8594 122.208 11.4557 122.062 10.9922C121.922 10.5234 121.852 10.0208 121.852 9.48438C121.852 8.93229 121.938 8.41406 122.109 7.92969C122.286 7.4401 122.539 7.01302 122.867 6.64844C123.195 6.28385 123.591 5.9974 124.055 5.78906C124.523 5.57552 125.049 5.46875 125.633 5.46875C126.227 5.46875 126.76 5.58333 127.234 5.8125C127.708 6.04167 128.112 6.36198 128.445 6.77344C128.773 7.1849 129.023 7.67448 129.195 8.24219C129.372 8.8099 129.461 9.43229 129.461 10.1094V10.8594C129.461 11.7656 129.349 12.599 129.125 13.3594C128.901 14.1198 128.555 14.776 128.086 15.3281C127.617 15.8854 127.021 16.3203 126.297 16.6328C125.573 16.9401 124.708 17.0938 123.703 17.0938H123.539V15.2734H123.688ZM125.68 11.6328C125.878 11.6328 126.06 11.6042 126.227 11.5469C126.398 11.4896 126.555 11.4089 126.695 11.3047C126.831 11.2057 126.948 11.0885 127.047 10.9531C127.151 10.8125 127.234 10.6615 127.297 10.5V9.72656C127.297 9.3099 127.253 8.94531 127.164 8.63281C127.081 8.32031 126.964 8.0599 126.812 7.85156C126.661 7.64323 126.484 7.48698 126.281 7.38281C126.078 7.27865 125.859 7.22656 125.625 7.22656C125.37 7.22656 125.141 7.28906 124.938 7.41406C124.74 7.53385 124.573 7.69531 124.438 7.89844C124.302 8.10677 124.198 8.34635 124.125 8.61719C124.052 8.88281 124.016 9.16146 124.016 9.45312C124.016 9.74479 124.049 10.0234 124.117 10.2891C124.185 10.5547 124.289 10.7865 124.43 10.9844C124.565 11.1823 124.737 11.3411 124.945 11.4609C125.154 11.5755 125.398 11.6328 125.68 11.6328ZM133.297 15.2734C133.88 15.2734 134.385 15.2109 134.812 15.0859C135.24 14.9609 135.599 14.7786 135.891 14.5391C136.172 14.3099 136.391 14.0286 136.547 13.6953C136.708 13.3568 136.815 12.9792 136.867 12.5625V12.5156C136.758 12.625 136.635 12.7266 136.5 12.8203C136.365 12.9141 136.216 12.9948 136.055 13.0625C135.883 13.1406 135.69 13.2031 135.477 13.25C135.263 13.2917 135.029 13.3125 134.773 13.3125C134.232 13.3125 133.755 13.2135 133.344 13.0156C132.932 12.8177 132.589 12.5469 132.312 12.2031C132.031 11.8594 131.818 11.4557 131.672 10.9922C131.531 10.5234 131.461 10.0208 131.461 9.48438C131.461 8.93229 131.547 8.41406 131.719 7.92969C131.896 7.4401 132.148 7.01302 132.477 6.64844C132.805 6.28385 133.201 5.9974 133.664 5.78906C134.133 5.57552 134.659 5.46875 135.242 5.46875C135.836 5.46875 136.37 5.58333 136.844 5.8125C137.318 6.04167 137.721 6.36198 138.055 6.77344C138.383 7.1849 138.633 7.67448 138.805 8.24219C138.982 8.8099 139.07 9.43229 139.07 10.1094V10.8594C139.07 11.7656 138.958 12.599 138.734 13.3594C138.51 14.1198 138.164 14.776 137.695 15.3281C137.227 15.8854 136.63 16.3203 135.906 16.6328C135.182 16.9401 134.318 17.0938 133.312 17.0938H133.148V15.2734H133.297ZM135.289 11.6328C135.487 11.6328 135.669 11.6042 135.836 11.5469C136.008 11.4896 136.164 11.4089 136.305 11.3047C136.44 11.2057 136.557 11.0885 136.656 10.9531C136.76 10.8125 136.844 10.6615 136.906 10.5V9.72656C136.906 9.3099 136.862 8.94531 136.773 8.63281C136.69 8.32031 136.573 8.0599 136.422 7.85156C136.271 7.64323 136.094 7.48698 135.891 7.38281C135.688 7.27865 135.469 7.22656 135.234 7.22656C134.979 7.22656 134.75 7.28906 134.547 7.41406C134.349 7.53385 134.182 7.69531 134.047 7.89844C133.911 8.10677 133.807 8.34635 133.734 8.61719C133.661 8.88281 133.625 9.16146 133.625 9.45312C133.625 9.74479 133.659 10.0234 133.727 10.2891C133.794 10.5547 133.898 10.7865 134.039 10.9844C134.174 11.1823 134.346 11.3411 134.555 11.4609C134.763 11.5755 135.008 11.6328 135.289 11.6328ZM147.18 5.53125V7.33594H147.055C146.482 7.33594 145.974 7.41146 145.531 7.5625C145.094 7.71354 144.721 7.92708 144.414 8.20312C144.102 8.47917 143.854 8.8099 143.672 9.19531C143.495 9.58073 143.383 10.0104 143.336 10.4844C143.456 10.3542 143.594 10.2266 143.75 10.1016C143.906 9.97135 144.083 9.85417 144.281 9.75C144.474 9.65104 144.685 9.57031 144.914 9.50781C145.143 9.44531 145.391 9.41406 145.656 9.41406C146.198 9.41406 146.669 9.51823 147.07 9.72656C147.477 9.92969 147.815 10.2057 148.086 10.5547C148.357 10.9089 148.557 11.3203 148.688 11.7891C148.823 12.2526 148.891 12.7422 148.891 13.2578C148.891 13.8099 148.802 14.3229 148.625 14.7969C148.448 15.2708 148.195 15.6823 147.867 16.0312C147.539 16.3802 147.141 16.6562 146.672 16.8594C146.203 17.0573 145.677 17.1562 145.094 17.1562C144.484 17.1562 143.935 17.0443 143.445 16.8203C142.956 16.5911 142.542 16.276 142.203 15.875C141.859 15.474 141.594 15 141.406 14.4531C141.224 13.901 141.133 13.2995 141.133 12.6484V11.8125C141.133 10.9115 141.255 10.0781 141.5 9.3125C141.745 8.54167 142.109 7.875 142.594 7.3125C143.078 6.75521 143.68 6.32031 144.398 6.00781C145.117 5.6901 145.948 5.53125 146.891 5.53125H147.18ZM145.023 11.1562C144.815 11.1562 144.62 11.1875 144.438 11.25C144.255 11.3073 144.089 11.3906 143.938 11.5C143.807 11.599 143.688 11.7135 143.578 11.8438C143.474 11.974 143.385 12.1172 143.312 12.2734V12.9141C143.312 13.3307 143.354 13.6953 143.438 14.0078C143.526 14.3203 143.648 14.5781 143.805 14.7812C143.961 14.9896 144.146 15.1458 144.359 15.25C144.573 15.3542 144.805 15.4062 145.055 15.4062C145.31 15.4062 145.542 15.3542 145.75 15.25C145.958 15.1406 146.135 14.9922 146.281 14.8047C146.427 14.6172 146.539 14.3958 146.617 14.1406C146.695 13.8802 146.734 13.5964 146.734 13.2891C146.734 12.9818 146.695 12.6979 146.617 12.4375C146.539 12.1771 146.427 11.9505 146.281 11.7578C146.135 11.5703 145.956 11.4245 145.742 11.3203C145.534 11.2109 145.294 11.1562 145.023 11.1562Z" fill="#6C4E4D"/>
<path d="M7.28369 3L7.28353 9.05583L12.2163 6.02831L13 7.47168L8.068 10.4992L13 13.5283L12.2163 14.9717L7.28353 11.9433L7.28369 18H5.71633L5.71618 11.9433L0.783679 14.9717L0 13.5283L4.93169 10.5L0 7.47168L0.783679 6.02831L5.71618 9.05583L5.71633 3H7.28369Z" fill="#6C4E4D"/>
</svg>
